<svg width="68" height="27" viewBox="0 0 68 27" fill="none" xmlns="http://www.w3.org/2000/svg">
<g id="c-pay">
<path id="Trazado 395" d="M9.41797 21.8151C6.92438 21.9692 4.46096 21.2027 2.49496 19.6611C1.63976 18.8546 0.974094 17.8685 0.545941 16.7737C0.117789 15.6789 -0.0621879 14.5028 0.0189637 13.3301C0.0189637 10.5421 0.839961 8.42879 2.48196 6.99012C4.41957 5.45209 6.8565 4.68298 9.32596 4.83012C11.6473 4.70319 13.9638 5.15542 16.067 6.14612C16.7904 6.50061 17.3969 7.05533 17.8143 7.74435C18.2318 8.43338 18.4427 9.22776 18.422 10.0331C18.4267 10.156 18.4048 10.2785 18.3576 10.3921C18.3105 10.5057 18.2393 10.6077 18.149 10.6911C17.9586 10.8662 17.7075 10.9602 17.449 10.9531H15.085C14.7132 10.9431 14.3504 10.8376 14.0312 10.6467C13.7121 10.4558 13.4476 10.1859 13.263 9.86312C12.8776 9.36547 12.371 8.97493 11.7917 8.72878C11.2124 8.48264 10.5797 8.38911 9.95395 8.45712C9.35102 8.39064 8.74087 8.45877 8.16745 8.65659C7.59403 8.85442 7.07165 9.17701 6.63797 9.60112C5.91368 10.7033 5.58151 12.0172 5.69497 13.3311C5.58014 14.6527 5.92486 15.9733 6.67096 17.0701C7.11884 17.4974 7.6546 17.8218 8.24081 18.0206C8.82702 18.2194 9.44957 18.2878 10.065 18.2211C10.6981 18.2923 11.3389 18.2005 11.9266 17.9544C12.5143 17.7083 13.0294 17.3162 13.423 16.8151C13.6059 16.489 13.8701 16.2157 14.1899 16.0219C14.5097 15.8281 14.8742 15.7203 15.248 15.7091H17.612C17.8724 15.6998 18.1259 15.794 18.317 15.9711C18.4071 16.0537 18.4786 16.1546 18.5265 16.267C18.5745 16.3795 18.5978 16.5009 18.595 16.6231C18.6157 17.4285 18.4048 18.2229 17.9873 18.9119C17.5699 19.6009 16.9634 20.1556 16.24 20.5101C14.1095 21.5045 11.765 21.953 9.41797 21.8151Z" fill="#212322"/>
<path id="Trazado 402" d="M6.32067 25.7113V24.0053C6.31706 23.89 6.34094 23.7754 6.39031 23.6711C6.43969 23.5668 6.51316 23.4757 6.60467 23.4053C6.80415 23.2502 7.0522 23.1709 7.30468 23.1814H10.9247C11.1831 23.1698 11.4367 23.2542 11.6367 23.4184C11.7242 23.4893 11.7944 23.5791 11.842 23.6812C11.8896 23.7832 11.9135 23.8947 11.9117 24.0073V25.7133C11.9143 25.8286 11.8899 25.9428 11.8406 26.0469C11.7913 26.1511 11.7184 26.2423 11.6277 26.3134C11.4276 26.4673 11.18 26.5466 10.9277 26.5374H7.30767C7.05125 26.5498 6.7988 26.4703 6.59567 26.3134C6.5066 26.2409 6.43545 26.1489 6.38775 26.0445C6.34005 25.9401 6.3171 25.8261 6.32067 25.7113Z" fill="#EFBA40"/>
<path id="Trazado 403" d="M6.32074 2.77078V1.07078C6.31761 0.955492 6.34168 0.841088 6.39102 0.736843C6.44036 0.632599 6.51358 0.541449 6.60473 0.470783C6.80422 0.315653 7.05226 0.236281 7.30474 0.246781H10.9247C11.1832 0.23519 11.4368 0.319606 11.6367 0.48378C11.7241 0.55525 11.7942 0.645516 11.8418 0.747845C11.8894 0.850174 11.9133 0.96193 11.9117 1.07478V2.77478C11.9143 2.88999 11.89 3.00421 11.8407 3.10836C11.7914 3.21252 11.7185 3.30374 11.6277 3.37478C11.4281 3.5296 11.1802 3.60893 10.9277 3.59878H7.30774C7.05119 3.61218 6.7984 3.53265 6.59573 3.37478C6.50639 3.30215 6.4351 3.20983 6.38739 3.10505C6.33968 3.00026 6.31686 2.88585 6.32074 2.77078Z" fill="#E4A4A9"/>
<path id="Trazado 404" d="M9.41797 21.8151C6.92438 21.9692 4.46096 21.2027 2.49496 19.6611C1.63976 18.8546 0.974094 17.8685 0.545941 16.7737C0.117789 15.6789 -0.0621879 14.5028 0.0189637 13.3301C0.0189637 10.5421 0.839961 8.42879 2.48196 6.99012C4.41957 5.45209 6.8565 4.68298 9.32596 4.83012C11.6473 4.70319 13.9638 5.15542 16.067 6.14612C16.7904 6.50061 17.3969 7.05533 17.8143 7.74435C18.2318 8.43338 18.4427 9.22776 18.422 10.0331C18.4267 10.156 18.4048 10.2785 18.3576 10.3921C18.3105 10.5057 18.2393 10.6077 18.149 10.6911C17.9586 10.8662 17.7075 10.9602 17.449 10.9531H15.085C14.7132 10.9431 14.3504 10.8376 14.0312 10.6467C13.7121 10.4558 13.4476 10.1859 13.263 9.86312C12.8776 9.36547 12.371 8.97493 11.7917 8.72878C11.2124 8.48264 10.5797 8.38911 9.95395 8.45712C9.35102 8.39064 8.74087 8.45877 8.16745 8.65659C7.59403 8.85442 7.07165 9.17701 6.63797 9.60112C5.91368 10.7033 5.58151 12.0172 5.69497 13.3311C5.58014 14.6527 5.92486 15.9733 6.67096 17.0701C7.11884 17.4974 7.6546 17.8218 8.24081 18.0206C8.82702 18.2194 9.44957 18.2878 10.065 18.2211C10.6981 18.2923 11.3389 18.2005 11.9266 17.9544C12.5143 17.7083 13.0294 17.3162 13.423 16.8151C13.6059 16.489 13.8701 16.2157 14.1899 16.0219C14.5097 15.8281 14.8742 15.7203 15.248 15.7091H17.612C17.8724 15.6998 18.1259 15.794 18.317 15.9711C18.4071 16.0537 18.4786 16.1546 18.5265 16.267C18.5745 16.3795 18.5978 16.5009 18.595 16.6231C18.6157 17.4285 18.4048 18.2229 17.9873 18.9119C17.5699 19.6009 16.9634 20.1556 16.24 20.5101C14.1095 21.5045 11.765 21.953 9.41797 21.8151Z" fill="#212322"/>
<path id="Trazado 411" d="M6.32067 25.7113V24.0053C6.31706 23.89 6.34094 23.7754 6.39031 23.6711C6.43969 23.5668 6.51316 23.4757 6.60467 23.4053C6.80415 23.2502 7.0522 23.1709 7.30468 23.1814H10.9247C11.1831 23.1698 11.4367 23.2542 11.6367 23.4184C11.7242 23.4893 11.7944 23.5791 11.842 23.6812C11.8896 23.7832 11.9135 23.8947 11.9117 24.0073V25.7133C11.9143 25.8286 11.8899 25.9428 11.8406 26.0469C11.7913 26.1511 11.7184 26.2423 11.6277 26.3134C11.4276 26.4673 11.18 26.5466 10.9277 26.5374H7.30767C7.05125 26.5498 6.7988 26.4703 6.59567 26.3134C6.5066 26.2409 6.43545 26.1489 6.38775 26.0445C6.34005 25.9401 6.3171 25.8261 6.32067 25.7113Z" fill="#EFBA40"/>
<path id="Trazado 412" d="M6.32074 2.77078V1.07078C6.31761 0.955492 6.34168 0.841088 6.39102 0.736843C6.44036 0.632599 6.51358 0.541449 6.60473 0.470783C6.80422 0.315653 7.05226 0.236281 7.30474 0.246781H10.9247C11.1832 0.23519 11.4368 0.319606 11.6367 0.48378C11.7241 0.55525 11.7942 0.645516 11.8418 0.747845C11.8894 0.850174 11.9133 0.96193 11.9117 1.07478V2.77478C11.9143 2.88999 11.89 3.00421 11.8407 3.10836C11.7914 3.21252 11.7185 3.30374 11.6277 3.37478C11.4281 3.5296 11.1802 3.60893 10.9277 3.59878H7.30774C7.05119 3.61218 6.7984 3.53265 6.59573 3.37478C6.50639 3.30215 6.4351 3.20983 6.38739 3.10505C6.33968 3.00026 6.31686 2.88585 6.32074 2.77078Z" fill="#E4A4A9"/>
<path id="Trazado 413" d="M27.3838 6.34564C27.4206 5.9732 27.6024 5.63017 27.89 5.39067C28.1776 5.15117 28.5479 5.03442 28.9208 5.06564H33.9028C34.8143 5.03993 35.7203 5.21472 36.5568 5.57765C37.3171 5.92364 37.9475 6.50257 38.3568 7.23064C38.782 8.016 38.9947 8.89881 38.9738 9.79164C38.9767 10.4682 38.8828 11.1417 38.6948 11.7916C38.5157 12.4123 38.249 13.0042 37.9028 13.5496C37.5673 14.0801 37.1613 14.5625 36.6958 14.9836C36.2364 15.3984 35.7185 15.7434 35.1588 16.0076C34.3581 16.3837 33.4834 16.576 32.5988 16.5706H29.4788L28.7338 20.4306C28.6971 20.8031 28.5152 21.1461 28.2276 21.3856C27.9401 21.6251 27.5698 21.7419 27.1968 21.7106H25.6848C24.8315 21.7106 24.4902 21.284 24.6608 20.4306L27.3838 6.34564ZM32.1568 13.0706C32.4074 13.0723 32.6574 13.0451 32.9018 12.9896C33.126 12.9391 33.3391 12.8483 33.5308 12.7216C33.9253 12.4506 34.2424 12.0815 34.4508 11.6506C34.679 11.1874 34.7948 10.677 34.7888 10.1606C34.8006 9.94662 34.7696 9.7324 34.6976 9.53049C34.6257 9.32858 34.5143 9.14302 34.3698 8.98464C34.2007 8.83105 34.0019 8.71361 33.7858 8.6395C33.5696 8.56539 33.3407 8.53617 33.1128 8.55364H31.0618L30.1778 13.0706H32.1568ZM44.6358 6.10964C44.7756 5.79014 45.0076 5.51968 45.3021 5.33295C45.5966 5.14622 45.9402 5.05175 46.2888 5.06164H48.7328C48.8838 5.04299 49.0371 5.05586 49.1829 5.09946C49.3286 5.14305 49.4638 5.21641 49.5798 5.31491C49.6957 5.4134 49.79 5.53489 49.8566 5.67168C49.9233 5.80848 49.9608 5.95761 49.9668 6.10964L52.0378 20.2446C52.0851 20.4305 52.0865 20.6252 52.0419 20.8117C51.9973 20.9983 51.9081 21.1712 51.7818 21.3156C51.6415 21.4539 51.4736 21.561 51.289 21.6299C51.1045 21.6989 50.9074 21.7281 50.7108 21.7156H49.1748C49.0223 21.7321 48.868 21.7168 48.7217 21.6707C48.5753 21.6246 48.4402 21.5486 48.3247 21.4476C48.2092 21.3466 48.1159 21.2227 48.0507 21.0838C47.9855 20.9449 47.9498 20.794 47.9458 20.6406L47.7128 18.2196H42.5168L41.3528 20.6406C41.2239 20.9649 40.9983 21.2415 40.7067 21.4331C40.4151 21.6247 40.0716 21.722 39.7228 21.7116H38.0928C37.9192 21.7371 37.7419 21.7131 37.5813 21.6424C37.4206 21.5716 37.2832 21.457 37.1848 21.3116C37.12 21.1351 37.0988 20.9454 37.1232 20.7589C37.1476 20.5724 37.2168 20.3946 37.3248 20.2406L44.6358 6.10964ZM47.3828 14.9566L47.0828 11.7206C47.0515 11.454 47.0322 11.159 47.0248 10.8356C47.0175 10.5123 47.0058 10.202 46.9898 9.90464C46.9745 9.56331 46.9668 9.21398 46.9668 8.85664H46.9198L46.5008 9.90464C46.3768 10.1993 46.2412 10.5096 46.0938 10.8356C45.9465 11.1616 45.8108 11.4566 45.6868 11.7206L44.0998 14.9596L47.3828 14.9566ZM56.8828 14.8866L53.8558 6.59864C53.7675 6.42374 53.7294 6.22775 53.7458 6.03248C53.7622 5.83722 53.8325 5.65034 53.9488 5.49264C54.0865 5.34181 54.2571 5.2248 54.4473 5.15074C54.6376 5.07667 54.8424 5.04755 55.0458 5.06564H56.7458C57.0412 5.0415 57.3354 5.12482 57.5742 5.30028C57.8131 5.47575 57.9806 5.73155 58.0458 6.02064L58.9068 9.07064C58.9842 9.36531 59.0542 9.65231 59.1168 9.93164C59.1795 10.211 59.2338 10.467 59.2798 10.6996C59.3418 10.979 59.3962 11.235 59.4428 11.4676H59.4898C59.6138 11.235 59.7612 10.979 59.9318 10.6996C60.0718 10.467 60.2272 10.211 60.3978 9.93164C60.5685 9.65231 60.7548 9.36531 60.9568 9.07064L62.9568 6.02064C63.1244 5.72542 63.3686 5.48088 63.6636 5.3128C63.9585 5.14473 64.2934 5.05934 64.6328 5.06564H66.6118C67.1085 5.06564 67.4188 5.20931 67.5428 5.49664C67.6668 5.78398 67.5505 6.15264 67.1938 6.60264L60.9548 14.8906L59.8838 20.4306C59.8473 20.8035 59.6654 21.1469 59.3776 21.3866C59.0898 21.6264 58.7191 21.7431 58.3458 21.7116H56.8338C55.9805 21.7116 55.6392 21.285 55.8098 20.4316L56.8828 14.8866Z" fill="#212322"/>
</g>
</svg>
