<svg width="115" height="32" viewBox="0 0 115 32" fill="none" xmlns="http://www.w3.org/2000/svg">
<g id="Capa_1" clip-path="url(#clip0_1_1432)">
<g id="Group">
<path id="Vector" d="M42.1127 14.5792C42.1127 6.68318 32.6855 0.245728 21.0563 0.245728C9.42712 0.245728 0 6.68318 0 14.5792C0 14.7845 0 15.3464 0 15.419C0 23.7982 8.23811 30.5829 21.0533 30.5829C33.8685 30.5829 42.1127 23.7982 42.1127 15.4222V14.5824V14.5792Z" fill="#283480"/>
<path id="Vector_2" d="M41.3063 14.573C41.3063 22.0176 32.2432 28.0541 21.0598 28.0541C9.87651 28.0541 0.816406 22.0176 0.816406 14.573C0.816406 7.12841 9.87955 1.09192 21.0629 1.09192C32.2462 1.09192 41.3093 7.12841 41.3093 14.573H41.3063Z" fill="#009FE3"/>
<g id="Group_2">
<path id="Vector_3" d="M14.3368 10.3202C14.3247 10.3423 14.1245 10.5601 14.2549 10.7338C14.5734 11.16 15.5622 11.4031 16.5601 11.1695C17.1546 11.0306 17.9159 10.3991 18.653 9.78979C19.4538 9.12994 20.2454 8.46694 21.0432 8.20174C21.8864 7.92075 22.4293 8.04072 22.7872 8.15438C23.1785 8.27751 23.6396 8.54587 24.3766 9.12047C25.7628 10.2034 31.3317 15.2643 32.2932 16.1388C33.0697 15.7758 36.5124 14.2319 41.1956 13.1553C40.7892 10.557 39.2695 8.17964 36.9674 6.23483C33.7582 7.6366 29.8363 8.36907 26.0024 6.4211C25.9842 6.41163 23.9065 5.39186 21.8591 5.43922C18.8168 5.51184 17.4974 6.88204 16.1021 8.33434L14.3368 10.317V10.3202Z" fill="white"/>
<path id="Vector_4" d="M32.0671 16.6914C32.0034 16.6314 25.5184 10.7244 24.0473 9.57514C23.198 8.91214 22.7249 8.74165 22.2274 8.67535C21.9696 8.64062 21.6117 8.69114 21.363 8.7606C20.6805 8.95318 19.7857 9.57514 18.9941 10.2318C18.1721 10.9138 17.3986 11.5547 16.6797 11.722C15.7607 11.9367 14.6414 11.6841 14.1288 11.3242C13.9226 11.179 13.777 11.0117 13.7042 10.8412C13.5161 10.3865 13.865 10.0203 13.9195 9.96032L15.7091 7.94605C15.9184 7.73136 16.1277 7.51352 16.34 7.30199C15.7637 7.38092 15.2299 7.53246 14.7082 7.684C14.0591 7.87343 13.4373 8.05339 12.8064 8.05339C12.5425 8.05339 11.1321 7.81345 10.8651 7.73768C9.24542 7.27673 7.82589 6.82841 5.70267 5.79602C3.15783 7.76609 1.45622 10.2318 0.964844 12.947C1.33186 13.048 1.9203 13.2311 2.16598 13.288C7.92296 14.6203 9.71556 15.9937 10.0401 16.2778C10.392 15.8705 10.8985 15.6116 11.4687 15.6116C12.1057 15.6116 12.679 15.9463 13.0278 16.4609C13.3584 16.1894 13.8134 15.9589 14.3988 15.9589C14.6657 15.9589 14.9417 16.0094 15.2208 16.1105C15.8699 16.3409 16.2066 16.7924 16.3795 17.1997C16.5978 17.0987 16.8648 17.0229 17.1802 17.0229C17.4896 17.0229 17.8111 17.0955 18.1387 17.2439C19.2003 17.7175 19.3641 18.8035 19.2701 19.6212C19.3459 19.6118 19.4217 19.6086 19.4976 19.6086C20.7563 19.6086 21.7785 20.6757 21.7785 21.986C21.7785 22.3901 21.6784 22.7721 21.5055 23.1067C21.8483 23.3056 22.7218 23.7603 23.4862 23.6592C24.0989 23.5803 24.3325 23.3625 24.4143 23.2393C24.472 23.1541 24.5326 23.0562 24.475 22.9868L22.8492 21.1083C22.8492 21.1083 22.5823 20.8462 22.6703 20.742C22.7613 20.6378 22.9281 20.7862 23.0434 20.8904C23.8714 21.6102 24.8784 22.6932 24.8784 22.6932C24.8966 22.7058 24.9634 22.8415 25.3364 22.911C25.658 22.971 26.2252 22.9363 26.6195 22.5984C26.7196 22.5132 26.8197 22.4059 26.9016 22.2985C26.8955 22.3048 26.8894 22.3111 26.8834 22.3143C27.2989 21.7618 26.8379 21.1998 26.8379 21.1998L24.9421 18.9835C24.9421 18.9835 24.6722 18.7214 24.7632 18.6173C24.8451 18.5257 25.021 18.6646 25.1393 18.7656C25.7398 19.2897 26.5891 20.1737 27.402 21.0041C27.5598 21.124 28.2756 21.585 29.2219 20.9378C29.7952 20.5463 29.9105 20.0632 29.8953 19.7002C29.8559 19.2203 29.4949 18.8761 29.4949 18.8761L26.9046 16.1641C26.9046 16.1641 26.6316 15.921 26.7287 15.7979C26.8075 15.6937 26.9865 15.8421 27.1017 15.9463C27.9268 16.6661 30.1622 18.7972 30.1622 18.7972C30.1926 18.8193 30.966 19.3939 31.9184 18.7593C32.2582 18.532 32.4765 18.191 32.4947 17.7932C32.5281 17.105 32.061 16.6945 32.061 16.6945L32.0671 16.6914Z" fill="white"/>
<path id="Vector_5" d="M19.5048 20.1297C19.1044 20.1234 18.6646 20.3728 18.607 20.338C18.5766 20.3159 18.6312 20.1486 18.6707 20.0507C18.7101 19.956 19.2379 18.2985 17.9488 17.7239C16.963 17.2819 16.3594 17.7776 16.1531 18.0017C16.0985 18.0617 16.0743 18.0554 16.0682 17.9796C16.047 17.6829 15.9196 16.8746 15.0672 16.6031C13.8509 16.2148 13.0684 17.0988 12.8682 17.4177C12.7802 16.6947 12.1918 16.1359 11.476 16.1359C10.6964 16.1359 10.0625 16.7926 10.0625 17.6039C10.0625 18.4153 10.6934 19.0752 11.476 19.0752C11.8551 19.0752 12.1979 18.9173 12.4526 18.6648C12.4617 18.6711 12.4648 18.6869 12.4587 18.7153C12.398 19.0783 12.2889 20.4012 13.6204 20.9379C14.1543 21.1526 14.6062 20.9916 14.9823 20.7201C15.0945 20.638 15.1127 20.6727 15.0976 20.7832C15.0491 21.1242 15.1097 21.8503 16.0894 22.2639C16.8356 22.5796 17.2754 22.2576 17.5666 21.9798C17.694 21.8598 17.7273 21.8787 17.7334 22.065C17.7698 23.0501 18.5554 23.8299 19.5078 23.8299C20.4906 23.8299 21.2853 23.0027 21.2853 21.9829C21.2853 20.96 20.4906 20.1423 19.5078 20.1328L19.5048 20.1297Z" fill="white"/>
</g>
<path id="Vector_6" d="M32.3199 15.9842C30.3241 14.1689 25.7076 9.99192 24.4549 9.01636C23.7421 8.45754 23.2538 8.16077 22.8261 8.02817C22.635 7.96818 22.3681 7.89872 22.0253 7.89872C21.7068 7.89872 21.3671 7.95871 21.0092 8.07553C20.2024 8.34073 19.3956 9.00689 18.6191 9.65095L18.5796 9.68252C17.8547 10.2824 17.1055 10.9043 16.5383 11.0369C16.2896 11.0938 16.0348 11.1253 15.783 11.1253C15.1491 11.1253 14.5758 10.9328 14.3635 10.6486C14.3271 10.6013 14.3514 10.5255 14.4333 10.415L14.4454 10.3992L16.2016 8.42913C17.5787 6.99578 18.8769 5.64451 21.8706 5.57189C21.9192 5.57189 21.9707 5.57189 22.0193 5.57189C23.8816 5.57189 25.744 6.44011 25.9533 6.54114C27.7004 7.42831 29.5021 7.87978 31.3129 7.87978C33.2026 7.87978 35.1499 7.39358 37.1973 6.4117C36.9698 6.2128 36.7302 6.01705 36.4845 5.82447C34.6858 6.63586 32.969 7.04629 31.316 7.04629C29.6265 7.04629 27.937 6.62323 26.2991 5.78974C26.2111 5.74554 24.1577 4.7384 22.0162 4.7384C21.9616 4.7384 21.904 4.7384 21.8464 4.7384C19.3319 4.79839 17.9184 5.72975 16.966 6.54114C16.0409 6.56324 15.2401 6.79687 14.5303 7.00209C13.8964 7.1852 13.3474 7.34622 12.8136 7.34306C12.5921 7.34306 12.1978 7.32096 12.1614 7.32096C11.5457 7.30202 8.45184 6.51273 5.9889 5.54032C5.73714 5.7266 5.49449 5.91603 5.26094 6.11177C7.83307 7.21046 10.9633 8.05974 11.9521 8.12604C12.2282 8.14498 12.5193 8.17655 12.8136 8.17655C13.4657 8.17655 14.1178 7.98712 14.7518 7.80085C15.1248 7.69035 15.5343 7.57354 15.9681 7.48829C15.8528 7.60511 15.7375 7.72508 15.6223 7.84505L13.8357 9.85617C13.6962 10.0046 13.3899 10.3992 13.5901 10.8822C13.6689 11.078 13.8327 11.2643 14.0602 11.4253C14.4848 11.722 15.2462 11.9241 15.9559 11.9241C16.2229 11.9241 16.4776 11.8957 16.7112 11.842C17.4604 11.6684 18.243 11.0148 19.0771 10.3297C19.7383 9.78039 20.6816 9.08582 21.4005 8.8806C21.6007 8.82377 21.8494 8.78904 22.0466 8.78904C22.1072 8.78904 22.1618 8.78904 22.2134 8.79852C22.6896 8.86166 23.1506 9.02899 23.9726 9.67305C25.4377 10.8191 31.9226 16.723 31.9863 16.783C31.9893 16.7861 32.4049 17.1587 32.3745 17.7743C32.3594 18.1185 32.1744 18.4247 31.8559 18.6362C31.5798 18.8194 31.2947 18.9109 31.0035 18.9109C30.5698 18.9109 30.2726 18.6994 30.2513 18.6836C30.2271 18.6647 28.0068 16.543 27.1878 15.8295C27.0574 15.7159 26.93 15.6148 26.8026 15.6148C26.7328 15.6148 26.6752 15.6432 26.6327 15.6969C26.5053 15.8611 26.6479 16.0916 26.8178 16.24L29.4142 18.9551C29.4142 18.9551 29.7387 19.2708 29.7721 19.6876C29.7933 20.139 29.5871 20.5147 29.1563 20.8084C28.85 21.0167 28.5406 21.1241 28.2373 21.1241C27.8399 21.1241 27.5579 20.9347 27.4972 20.8905L27.1241 20.5084C26.4447 19.8107 25.741 19.0909 25.2284 18.6457C25.104 18.5384 24.9675 18.4373 24.8401 18.4373C24.7764 18.4373 24.7188 18.4626 24.6763 18.51C24.6187 18.5763 24.5762 18.6994 24.7218 18.9014C24.7825 18.9835 24.8523 19.053 24.8523 19.053L26.745 21.2662C26.7601 21.2851 27.1362 21.7492 26.7874 22.2101L26.7207 22.2985C26.6631 22.3648 26.6024 22.4248 26.5448 22.4753C26.2202 22.75 25.7895 22.7816 25.6196 22.7816C25.5287 22.7816 25.4407 22.7721 25.3649 22.7595C25.1768 22.7248 25.0524 22.6711 24.9918 22.5953L24.9675 22.5701C24.8644 22.4596 23.9089 21.443 23.1203 20.7579C23.0172 20.6663 22.8868 20.5526 22.7533 20.5526C22.6866 20.5526 22.6289 20.581 22.5834 20.6316C22.4257 20.8084 22.6623 21.0767 22.7624 21.1746L24.3791 23.0279C24.3791 23.0436 24.3578 23.0815 24.3184 23.1415C24.2608 23.2236 24.0636 23.4288 23.4782 23.5046C23.4085 23.5141 23.3357 23.5172 23.2629 23.5172C22.6593 23.5172 22.0132 23.211 21.6826 23.0279C21.8342 22.6964 21.9131 22.3301 21.9131 21.9607C21.9131 20.5779 20.8333 19.4508 19.5048 19.4508C19.4775 19.4508 19.4471 19.4508 19.4168 19.4508C19.4593 18.8194 19.3743 17.6228 18.1944 17.0955C17.8547 16.944 17.515 16.8651 17.1874 16.8651C16.9296 16.8651 16.6809 16.9124 16.4503 17.004C16.2047 16.5083 15.8012 16.1484 15.2704 15.9621C14.9792 15.8579 14.6881 15.8043 14.406 15.8043C13.9146 15.8043 13.4627 15.9558 13.0592 16.2526C12.674 15.7506 12.0886 15.457 11.4729 15.457C10.936 15.457 10.4173 15.6811 10.0352 16.0758C9.53166 15.6748 7.53885 14.3583 2.20046 13.0954C1.94263 13.0354 1.34813 12.8586 0.984149 12.7481C0.923486 13.0481 0.877988 13.3543 0.847656 13.6605C0.847656 13.6605 1.83344 13.9068 2.02453 13.951C7.47819 15.2107 9.2799 16.5241 9.58322 16.7704C9.48009 17.0292 9.42549 17.3071 9.42549 17.5881C9.42549 18.7594 10.3415 19.716 11.4699 19.716C11.5973 19.716 11.7216 19.7034 11.846 19.6813C12.0158 20.5432 12.5588 21.1999 13.3868 21.5345C13.6295 21.6324 13.8752 21.6797 14.1148 21.6797C14.2695 21.6797 14.4272 21.6608 14.5789 21.6198C14.7305 22.0239 15.0763 22.529 15.8467 22.8542C16.1167 22.9679 16.3866 23.0279 16.6505 23.0279C16.8659 23.0279 17.0752 22.99 17.2754 22.911C17.6454 23.8456 18.522 24.4675 19.5017 24.4675C20.1508 24.4675 20.7726 24.1928 21.2276 23.7066C21.6159 23.9308 22.4378 24.3381 23.2689 24.3412C23.3751 24.3412 23.4782 24.3318 23.5783 24.3223C24.4033 24.2149 24.7855 23.8771 24.9614 23.6182C24.9918 23.574 25.0221 23.5235 25.0464 23.473C25.2405 23.5298 25.4559 23.5804 25.6985 23.5804C26.1474 23.5804 26.5812 23.4193 27.0179 23.091C27.4456 22.769 27.752 22.308 27.7944 21.9134C27.7944 21.9071 27.7944 21.9007 27.7944 21.8976C27.94 21.9292 28.0887 21.9449 28.2343 21.9449C28.6983 21.9449 29.1533 21.7934 29.5901 21.4966C30.4303 20.922 30.5759 20.1738 30.5607 19.6844C30.7063 19.716 30.858 19.7318 31.0066 19.7318C31.4403 19.7318 31.868 19.596 32.2744 19.3245C32.7962 18.9772 33.1086 18.4468 33.1571 17.8312C33.1905 17.4113 33.0904 16.9882 32.8781 16.6251C34.2854 15.9937 37.5037 14.7719 41.2891 13.8847C41.2648 13.5785 41.2254 13.2785 41.1708 12.9754C36.5876 14.0331 33.1662 15.5738 32.3108 15.9716L32.3199 15.9842ZM19.5048 23.694C18.616 23.694 17.8911 22.9742 17.8577 22.0554C17.8577 21.9765 17.8486 21.7681 17.6788 21.7681C17.609 21.7681 17.5484 21.8123 17.4786 21.8786C17.2845 22.0681 17.0327 22.2607 16.6687 22.2607C16.5049 22.2607 16.326 22.2196 16.1349 22.1407C15.1946 21.746 15.1825 21.0736 15.2189 20.8021C15.228 20.7294 15.234 20.6537 15.1855 20.5968L15.1279 20.5432H15.0702C15.0217 20.5432 14.9732 20.5621 14.9065 20.6126C14.6335 20.8115 14.3726 20.9094 14.1087 20.9094C13.9631 20.9094 13.8145 20.8778 13.6628 20.8178C12.4253 20.3158 12.5224 19.1003 12.583 18.7341C12.5921 18.6615 12.5739 18.6015 12.5284 18.5636L12.4405 18.4879L12.3586 18.5699C12.1159 18.813 11.8035 18.9456 11.4699 18.9456C10.7601 18.9456 10.1838 18.3458 10.1838 17.607C10.1838 16.8682 10.7631 16.2684 11.4699 16.2715C12.1099 16.2715 12.6558 16.7735 12.7377 17.4397L12.7832 17.7996L12.9713 17.4965C12.9925 17.4618 13.5112 16.6441 14.4666 16.6441C14.6486 16.6441 14.8367 16.6756 15.0247 16.7356C15.7861 16.9787 15.9135 17.6954 15.9347 17.9953C15.9468 18.169 16.0682 18.1784 16.0894 18.1784C16.1561 18.1784 16.2047 18.1342 16.238 18.0964C16.3806 17.9417 16.693 17.6796 17.1844 17.6796C17.4088 17.6796 17.6454 17.7364 17.8941 17.8469C19.1044 18.3868 18.5554 19.9875 18.5493 20.0033C18.4462 20.2685 18.4401 20.3853 18.5402 20.4516L18.5887 20.4769H18.6251C18.6797 20.4769 18.7465 20.4516 18.8587 20.4137C19.0225 20.3537 19.2712 20.2653 19.5048 20.2653C20.4147 20.2748 21.1548 21.0483 21.1548 21.9828C21.1548 22.93 20.4117 23.6972 19.5017 23.6972L19.5048 23.694Z" fill="#283480"/>
</g>
<g id="Group_3">
<path id="Vector_7" d="M113.859 5.44564C113.101 4.45429 111.945 3.95862 110.398 3.95862C108.851 3.95862 107.699 4.45429 106.937 5.44564C106.176 6.43699 105.797 7.6083 105.797 8.95956C105.797 10.3108 106.176 11.5105 106.937 12.4893C107.696 13.4648 108.851 13.9542 110.398 13.9542C111.945 13.9542 113.101 13.4648 113.859 12.4893C114.62 11.5105 115 10.3361 115 8.95956C115 7.58304 114.62 6.43699 113.859 5.44564ZM111.975 11.1317C111.605 11.64 111.078 11.8957 110.389 11.8957C109.701 11.8957 109.17 11.64 108.8 11.1317C108.427 10.6234 108.242 9.89724 108.242 8.95956C108.242 8.02188 108.427 7.29889 108.8 6.79059C109.173 6.28545 109.701 6.02972 110.389 6.02972C111.078 6.02972 111.605 6.28229 111.975 6.79059C112.342 7.29574 112.527 8.01873 112.527 8.95956C112.527 9.90039 112.342 10.6234 111.975 11.1317Z" fill="#283480"/>
<path id="Vector_8" d="M94.4379 4.61847C93.6675 4.2112 92.7849 4.00598 91.793 4.00598C90.2673 4.00598 89.1905 4.41957 88.5627 5.24675C88.1684 5.77715 87.9469 6.45278 87.8954 7.27364H90.1763C90.2309 6.91057 90.3431 6.62327 90.513 6.41174C90.7496 6.12444 91.1469 5.97921 91.7141 5.97921C92.2176 5.97921 92.5998 6.05182 92.8637 6.20021C93.1246 6.34544 93.255 6.6138 93.255 6.99581C93.255 7.31153 93.0851 7.54516 92.7454 7.69354C92.5574 7.77879 92.2419 7.8514 91.8021 7.90823L90.9953 8.01242C90.0762 8.13239 89.3816 8.33445 88.9084 8.61544C88.044 9.13321 87.6133 9.96986 87.6133 11.1254C87.6133 12.0157 87.8802 12.704 88.4171 13.1902C88.9509 13.6764 89.6334 13.8784 90.4554 13.9195C95.6118 14.1594 95.5511 11.0906 95.5996 10.4529V6.9232C95.5996 5.78978 95.2144 5.01943 94.444 4.61216L94.4379 4.61847ZM93.2398 9.97617C93.2247 10.797 92.9972 11.3653 92.5634 11.6747C92.1297 11.9841 91.6535 12.142 91.1378 12.142C90.8103 12.142 90.5342 12.0473 90.3067 11.861C90.0793 11.6747 89.967 11.3716 89.967 10.9517C89.967 10.4813 90.1521 10.134 90.5251 9.90987C90.7466 9.77727 91.1075 9.66361 91.611 9.57521L92.1509 9.47103C92.4178 9.41735 92.6302 9.36053 92.7849 9.30054C92.9395 9.24055 93.0912 9.16478 93.2429 9.06375V9.97933L93.2398 9.97617Z" fill="#283480"/>
<path id="Vector_9" d="M82.6839 6.10856C83.2723 6.10856 83.7061 6.29799 83.9851 6.67685C84.1762 6.95784 84.2975 7.27355 84.343 7.624H86.8848C86.7453 6.28852 86.2964 5.35715 85.5381 4.82675C84.7768 4.2995 83.8031 4.0343 82.6141 4.0343C81.2128 4.0343 80.1117 4.48262 79.3201 5.3761C78.5223 6.27273 78.125 7.52297 78.125 9.12996C78.125 10.5538 78.4859 11.7157 79.2048 12.6092C79.9267 13.5026 81.049 13.951 82.5777 13.951C84.1064 13.951 85.2621 13.4142 86.0386 12.344C86.5269 11.681 86.7999 10.9737 86.8575 10.2287H84.3218C84.2702 10.7212 84.1216 11.1253 83.8759 11.4347C83.6302 11.7441 83.2207 11.8988 82.6353 11.8988C81.8133 11.8988 81.2552 11.5105 80.958 10.7275C80.7942 10.3107 80.7123 9.75824 80.7123 9.07314C80.7123 8.3533 80.7942 7.77554 80.958 7.33985C81.2674 6.52215 81.8407 6.11172 82.6778 6.11172L82.6839 6.10856Z" fill="#283480"/>
<path id="Vector_10" d="M77.4407 4.03723C72.2175 4.03723 72.5269 8.8519 72.5269 8.8519V13.7423H74.8989V9.15499C74.8989 8.40359 74.9899 7.84793 75.1718 7.48485C75.4964 6.84395 76.1334 6.52192 77.0797 6.52192C77.1525 6.52192 77.2435 6.52508 77.3618 6.53139C77.4771 6.5377 77.6075 6.54718 77.7591 6.56612V4.05617C77.653 4.04986 77.5863 4.0467 77.5559 4.04355C77.5256 4.04355 77.4892 4.03723 77.4437 4.03723H77.4407Z" fill="#283480"/>
<path id="Vector_11" d="M68.7345 11.185C68.6344 11.3334 68.5282 11.4597 68.4099 11.5576C68.0763 11.8449 67.6213 11.9333 67.0844 11.9333C66.5779 11.9333 66.1805 11.8544 65.8226 11.6176C65.2311 11.2387 64.8975 10.5978 64.8641 9.66014H71.4219C71.431 8.8519 71.4067 8.22994 71.343 7.80057C71.2338 7.06495 70.9942 6.41773 70.6272 5.86207C70.2177 5.23064 69.699 4.76969 69.0712 4.47608C68.4433 4.18562 67.7396 4.03723 66.954 4.03723C65.6346 4.03723 64.5608 4.46976 63.7328 5.33483C62.9047 6.20304 62.4922 7.44697 62.4922 9.06975C62.4922 10.803 62.9502 12.0533 63.8662 12.8236C64.7822 13.5908 65.8408 13.976 67.0389 13.976C68.4918 13.976 69.6202 13.5213 70.427 12.6089C70.8607 12.129 71.1337 11.6555 71.249 11.185H68.7345ZM65.5466 6.59138C65.8802 6.23462 66.3474 6.05466 66.951 6.05466C67.506 6.05466 67.9731 6.22199 68.3493 6.5598C68.7223 6.89762 68.9316 7.39014 68.9741 8.04051H64.9187C65.0037 7.43118 65.2129 6.94813 65.5466 6.59138Z" fill="#283480"/>
<path id="Vector_12" d="M61.5385 13.7394H59.3728V8.06281C59.3728 7.54504 59.209 6.31059 57.7804 6.31059C56.828 6.31059 56.1394 7.02411 56.1394 8.06281V13.7394H53.9707V8.06281C53.9707 7.54504 53.8221 6.31059 52.3965 6.31059C51.4289 6.31059 50.7555 7.02411 50.7555 8.06281V13.7394H48.5898V8.11964C48.5898 5.77703 50.0822 4.00586 52.3995 4.00586C53.5491 4.00586 54.4833 4.50785 55.093 5.31292C55.733 4.50785 56.6854 4.00586 57.7834 4.00586C60.1463 4.00586 61.5415 5.70441 61.5415 8.11964V13.7394H61.5385Z" fill="#283480"/>
<path id="Vector_13" d="M105.092 1.07285C105.092 1.07285 102.705 0.807651 102.705 2.80298V5.44552C102.438 5.00352 102.095 4.65939 101.671 4.40997C101.249 4.16056 100.764 4.03427 100.218 4.03427C99.035 4.03427 98.0887 4.49206 97.3819 5.41079C96.6722 6.32953 96.3203 7.65238 96.3203 9.2499C96.3203 10.6359 96.6782 11.7756 97.3971 12.6596C98.116 13.5436 99.5264 13.932 100.776 13.932C105.141 13.932 105.089 10.036 105.089 10.036V1.07285H105.092ZM102.25 11.1537C101.904 11.6714 101.395 11.9272 100.731 11.9272C100.066 11.9272 99.5658 11.6683 99.2382 11.1474C98.9107 10.6264 98.7469 9.87186 98.7469 9.0068C98.7469 8.20488 98.9076 7.53241 99.2291 6.98938C99.5507 6.4495 100.054 6.17483 100.746 6.17483C101.198 6.17483 101.595 6.32321 101.935 6.62314C102.49 7.11566 102.769 8.00282 102.769 9.14572C102.769 9.96658 102.596 10.6327 102.247 11.1505L102.25 11.1537Z" fill="#283480"/>
</g>
<g id="Group_4">
<path id="Vector_14" d="M65.8963 29.4022C65.8963 29.7368 65.781 30.0241 65.5474 30.2609C65.3169 30.5009 65.0379 30.6177 64.7103 30.6177H63.5273V22.0428C63.5273 20.3758 64.0672 19.3308 64.956 18.6268C65.5444 18.1595 66.418 17.7144 68.0559 17.7144C69.163 17.7144 70.4582 18.1627 71.1588 19.0498C71.9444 20.0475 72.272 21.162 72.272 22.6174C72.272 24.0729 71.9232 25.3357 71.2286 26.2671C70.531 27.1764 69.6362 27.6278 68.5442 27.6278C67.9649 27.6278 67.4523 27.5205 67.0125 27.3058C66.5454 27.0659 66.1753 26.6965 65.8963 26.1945V29.399V29.4022ZM69.8697 22.7248C69.8697 21.7934 69.6968 21.0799 69.345 20.5779C68.9962 20.0791 68.4987 19.8265 67.8466 19.8265C67.1945 19.8265 66.7334 20.0791 66.3816 20.5779C66.057 21.0325 65.8963 21.7492 65.8963 22.7248C65.8963 23.634 66.0691 24.3128 66.418 24.7643C66.7668 25.2663 67.2642 25.5157 67.9164 25.5157C68.52 25.5157 68.9962 25.2663 69.345 24.7643C69.6938 24.2623 69.8697 23.5867 69.8697 22.7248Z" fill="#009FE3"/>
<path id="Vector_15" d="M87.9808 26.8386V26.2324C87.5713 26.9018 87.0162 27.3154 86.3216 27.4827C85.624 27.6469 84.9355 27.59 84.253 27.3027C83.5675 27.0186 82.9791 26.4882 82.4877 25.7115C81.9994 24.9349 81.7537 23.9151 81.7537 22.6522C81.7537 21.1747 82.0782 19.9781 82.7273 19.0594C83.3794 18.1406 84.4229 17.7239 85.8606 17.6829C87.2771 17.645 88.0991 17.9765 88.9059 18.6142C89.7886 19.3119 90.3072 20.3791 90.3072 22.0461V27.0912C90.3103 28.695 89.2365 31.6722 85.8576 31.4197C83.7647 31.2618 82.603 30.3683 81.9569 28.3446H84.4562C84.6382 28.6761 84.9173 28.935 85.2964 29.1118C85.6695 29.2917 86.0486 29.3391 86.4248 29.257C86.8009 29.1749 87.1436 28.9413 87.453 28.5593C87.7594 28.1773 87.9353 27.6058 87.9838 26.8418M84.0801 22.7312C84.0801 24.376 84.5381 25.2885 85.4511 25.4684C86.3611 25.6452 87.0375 25.4242 87.4712 24.8054C87.6775 24.5434 87.8231 24.1329 87.9171 23.5741C88.0081 23.0153 88.0141 22.4596 87.9353 21.9103C87.8564 21.3609 87.6684 20.8716 87.3711 20.4422C87.0769 20.0128 86.6401 19.7982 86.0699 19.7982C85.2934 19.7982 84.7717 20.0981 84.4957 20.6916C84.2196 21.2883 84.0831 21.9671 84.0831 22.7312" fill="#009FE3"/>
<path id="Vector_16" d="M79.7252 18.3646C78.9548 17.9573 78.0722 17.7521 77.0803 17.7521C75.5546 17.7521 74.4778 18.1657 73.85 18.9928C73.4557 19.5232 73.2342 20.1989 73.1827 21.0197H75.4636C75.5182 20.6567 75.6305 20.3694 75.8003 20.1578C76.0369 19.8705 76.4343 19.7253 76.9984 19.7253C77.505 19.7253 77.8871 19.7979 78.145 19.9463C78.4058 20.0915 78.5362 20.3599 78.5362 20.7451C78.5362 21.0608 78.3664 21.2944 78.0267 21.4428C77.8386 21.528 77.5232 21.6007 77.0834 21.6575L76.2765 21.7617C75.3575 21.8816 74.6598 22.0837 74.1897 22.3678C73.3252 22.8856 72.8945 23.7223 72.8945 24.8778C72.8945 25.7681 73.1614 26.4564 73.6983 26.9426C74.2322 27.4288 74.9146 27.634 75.7366 27.6719C80.89 27.9118 80.8324 24.8431 80.8809 24.2053V20.6756C80.8809 19.5422 80.4957 18.7718 79.7252 18.3646ZM78.5271 23.7223C78.512 24.5463 78.2845 25.1114 77.8507 25.4208C77.417 25.7302 76.9408 25.8849 76.4252 25.8849C76.0976 25.8849 75.8215 25.7902 75.5971 25.6039C75.3696 25.4177 75.2543 25.1146 75.2543 24.6947C75.2543 24.2243 75.4394 23.877 75.8124 23.6528C76.0339 23.5202 76.3948 23.4066 76.8983 23.3182L77.4352 23.214C77.7052 23.1603 77.9144 23.1066 78.0661 23.0435C78.2238 22.9835 78.3725 22.9077 78.5241 22.8067V23.7223H78.5271Z" fill="#009FE3"/>
<path id="Vector_17" d="M99.2723 19.1414C98.5109 18.1501 97.3583 17.6544 95.8084 17.6544C94.2584 17.6544 93.1088 18.1501 92.3475 19.1414C91.5862 20.1328 91.207 21.3009 91.207 22.6554C91.207 24.0098 91.5862 25.2064 92.3475 26.1819C93.1088 27.1575 94.2614 27.6468 95.8084 27.6468C97.3553 27.6468 98.5109 27.1575 99.2723 26.1819C100.031 25.2032 100.41 24.0287 100.41 22.6554C100.41 21.282 100.031 20.1328 99.2723 19.1414ZM97.3886 24.8243C97.0216 25.3358 96.4908 25.5884 95.8023 25.5884C95.1138 25.5884 94.583 25.3326 94.2129 24.8243C93.8398 24.316 93.6548 23.5899 93.6548 22.6522C93.6548 21.7145 93.8398 20.9915 94.2129 20.4864C94.583 19.9781 95.1138 19.7255 95.8023 19.7255C96.4908 19.7255 97.0186 19.9781 97.3886 20.4864C97.7587 20.9915 97.9407 21.7145 97.9407 22.6522C97.9407 23.5899 97.7557 24.316 97.3886 24.8243Z" fill="#009FE3"/>
</g>
</g>
<defs>
<clipPath id="clip0_1_1432">
<rect width="115" height="31.1864" fill="white" transform="translate(0 0.245728)"/>
</clipPath>
</defs>
</svg>
